<svg width="32" height="32" viewBox="0 0 32 32" fill="none" xmlns="http://www.w3.org/2000/svg">
<path d="M11.4406 30.0668C11.1473 30.0668 10.8406 30.0134 10.5606 29.8934C9.93397 29.6268 9.45397 29.1068 9.24064 28.4534L8.65397 26.6934C8.3873 25.8934 8.62731 24.8934 9.21397 24.2934L12.2406 21.2534C12.2806 21.2134 12.334 21.0668 12.334 21.0001V17.7068L6.25397 20.3334C5.44064 20.6801 4.61397 20.6401 3.9873 20.2268C3.36064 19.8134 2.9873 19.0668 2.9873 18.2001V16.4801C2.9873 15.1734 3.92064 13.7734 5.1073 13.3068L12.3206 10.1868V6.40009C12.3206 4.78676 13.454 2.93342 14.894 2.18676C15.5873 1.84009 16.3873 1.84009 17.0673 2.18676C18.5206 2.93342 19.654 4.77342 19.654 6.38676V10.1734L26.9073 13.2934C28.094 13.8001 29.0006 15.1601 29.0006 16.4801V18.2001C29.0006 19.0801 28.6406 19.8134 28.0006 20.2268C27.3606 20.6401 26.5473 20.6801 25.734 20.3468L19.654 17.7201V21.0134C19.654 21.0668 19.7073 21.2001 19.7473 21.2401L22.7873 24.2934C23.374 24.8801 23.614 25.9068 23.3473 26.6934L22.7606 28.4534C22.534 29.1068 22.054 29.6268 21.414 29.8801C20.7873 30.1334 20.094 30.1068 19.494 29.8134C19.4273 29.7734 19.3606 29.7334 19.294 29.6801L16.1873 27.0668C16.0806 26.9734 15.8673 26.9868 15.774 27.0668L12.6673 29.6801C12.614 29.7334 12.5473 29.7734 12.4806 29.8001C12.1606 29.9868 11.8006 30.0668 11.4406 30.0668ZM12.7473 15.5201C13.054 15.5201 13.3473 15.6001 13.6006 15.7734C14.0673 16.0801 14.334 16.6001 14.334 17.2134V21.0134C14.334 21.5868 14.054 22.2668 13.654 22.6668L10.6273 25.7068C10.574 25.7734 10.5206 25.9734 10.5473 26.0534L11.134 27.8268C11.174 27.9601 11.2673 28.0134 11.3206 28.0401C11.3606 28.0534 11.4273 28.0801 11.5073 28.0534L14.494 25.5334C15.334 24.8134 16.654 24.8134 17.494 25.5334L20.4673 28.0401C20.5606 28.0534 20.6273 28.0401 20.6673 28.0268C20.7206 28.0001 20.8273 27.9468 20.8673 27.8134L21.454 26.0534C21.4806 25.9601 21.4273 25.7601 21.374 25.7068L18.3473 22.6668C17.9473 22.2934 17.654 21.6001 17.654 21.0134V17.2134C17.654 16.6134 17.9073 16.0934 18.3606 15.7868C18.814 15.4801 19.4006 15.4401 19.9606 15.6801L26.5206 18.5068C26.7206 18.5868 26.854 18.5868 26.894 18.5601C26.934 18.5334 26.9873 18.4134 26.9873 18.2001V16.4801C26.9873 15.9734 26.5606 15.3201 26.1073 15.1334L18.6673 11.9201C18.0806 11.6668 17.6673 11.0268 17.6673 10.3868V6.38676C17.6673 5.50676 16.974 4.37342 16.174 3.97342C16.0673 3.92009 15.934 3.92009 15.814 3.97342C15.0406 4.37342 14.334 5.53342 14.334 6.40009V10.4001C14.334 11.0268 13.9206 11.6801 13.334 11.9334L5.89397 15.1468C5.4273 15.3334 5.00064 15.9868 5.00064 16.4801V18.2001C5.00064 18.4134 5.05397 18.5334 5.09397 18.5601C5.13397 18.5868 5.2673 18.5868 5.4673 18.5068L12.014 15.6801C12.254 15.5734 12.5073 15.5201 12.7473 15.5201Z" fill="#DB9409"/>
</svg>
